<?xml version="1.0" encoding="utf-8"?>
<svg viewBox="166.2433 143.6968 98.753 118.9777" xmlns="http://www.w3.org/2000/svg">
  <path d="M 5678.688 8983.178 C 5678.688 8975.178 5663.688 8966.178 5641.688 8962.178 C 5586.688 8952.178 5510.688 8909.178 5462.688 8862.178 C 5396.688 8797.178 5388.688 8774.178 5273.688 8343.178 C 5264.688 8310.178 5251.688 8261.178 5243.688 8233.178 C 5235.688 8206.178 5222.688 8156.178 5213.688 8123.178 C 5204.688 8090.178 5190.688 8038.178 5182.688 8008.178 C 5174.688 7978.178 5160.688 7928.178 5152.688 7898.178 C 5137.688 7844.178 5128.688 7812.178 5093.688 7678.178 C 5083.688 7642.178 5070.688 7593.178 5063.688 7568.178 C 5050.688 7521.178 5026.688 7432.178 5001.688 7338.178 C 4968.688 7216.178 4940.688 7111.178 4913.688 7013.178 C 4903.688 6980.178 4889.688 6928.178 4881.688 6898.178 C 4873.688 6868.178 4859.688 6818.178 4851.688 6788.178 C 4843.688 6758.178 4829.688 6708.178 4821.688 6678.178 C 4813.688 6648.178 4800.688 6601.178 4793.688 6573.178 C 4785.688 6546.178 4772.688 6497.178 4763.688 6466.178 C 4748.688 6411.178 4736.688 6366.178 4703.688 6246.178 C 4695.688 6217.178 4682.688 6166.178 4673.688 6133.178 C 4664.688 6100.178 4651.688 6051.178 4643.688 6023.178 C 4635.688 5996.178 4622.688 5947.178 4614.688 5915.178 C 4605.688 5884.178 4591.688 5832.178 4583.688 5800.178 C 4561.688 5723.178 4544.688 5656.178 4523.688 5578.178 C 4514.688 5542.178 4502.688 5499.178 4497.688 5482.178 C 4464.688 5372.178 4511.688 5275.178 4618.688 5231.178 C 4660.688 5214.178 4714.688 5213.178 5543.688 5213.178 C 6479.688 5213.178 6456.688 5212.178 6557.688 5261.178 C 6612.688 5288.178 6683.688 5354.178 6706.688 5399.178 C 6724.688 5432.178 6742.688 5490.178 6773.688 5603.178 C 6782.688 5633.178 6795.688 5683.178 6803.688 5713.178 C 6812.688 5743.178 6825.688 5793.178 6833.688 5823.178 C 6842.688 5853.178 6855.688 5903.178 6863.688 5933.178 C 6872.688 5963.178 6885.688 6013.178 6893.688 6043.178 C 6902.688 6073.178 6915.688 6123.178 6923.688 6153.178 C 6932.688 6183.178 6945.688 6233.178 6953.688 6263.178 C 6962.688 6293.178 6975.688 6342.178 6983.688 6370.178 C 6990.688 6399.178 7004.688 6448.178 7012.688 6478.178 C 7020.688 6508.178 7034.688 6560.178 7043.688 6593.178 C 7052.688 6626.178 7065.688 6676.178 7073.688 6703.178 C 7081.688 6731.178 7094.688 6780.178 7103.688 6813.178 C 7134.688 6927.178 7146.688 6973.178 7162.688 7031.178 C 7170.688 7062.178 7184.688 7112.178 7192.688 7141.178 C 7200.688 7169.178 7213.688 7218.178 7221.688 7248.178 C 7229.688 7278.178 7244.688 7332.178 7253.688 7368.178 C 7263.688 7404.178 7276.688 7453.178 7283.688 7478.178 C 7290.688 7503.178 7303.688 7552.178 7313.688 7588.178 C 7323.688 7624.178 7336.688 7673.178 7343.688 7698.178 C 7350.688 7723.178 7363.688 7772.178 7373.688 7808.178 C 7382.688 7844.178 7396.688 7897.178 7404.688 7925.178 C 7412.688 7954.178 7425.688 8003.178 7433.688 8033.178 C 7442.688 8063.178 7455.688 8113.178 7463.688 8143.178 C 7472.688 8173.178 7485.688 8222.178 7493.688 8250.178 C 7500.688 8279.178 7513.688 8328.178 7522.688 8358.178 C 7530.688 8388.178 7543.688 8438.178 7552.688 8468.178 C 7587.688 8596.178 7601.688 8646.178 7614.688 8688.178 C 7655.688 8817.178 7605.688 8928.178 7493.688 8959.178 C 7473.688 8965.178 7458.688 8975.178 7458.688 8983.178 C 7458.688 8996.178 7340.688 8998.178 6568.688 8998.178 C 5796.688 8998.178 5678.688 8996.178 5678.688 8983.178 Z M 6723.688 7527.178 C 6793.688 7507.178 6829.688 7485.178 6858.688 7446.178 C 6880.688 7418.178 6883.688 7403.178 6883.688 7337.178 C 6883.688 7296.178 6875.688 7237.178 6866.688 7207.178 C 6833.688 7098.178 6818.688 7041.178 6818.688 7021.178 C 6818.688 7009.178 6810.688 6991.178 6801.688 6980.178 C 6784.688 6961.178 6768.688 6959.178 6538.688 6953.178 C 6248.688 6945.178 6250.688 6945.178 6269.688 7023.178 C 6275.688 7051.178 6287.688 7090.178 6294.688 7111.178 C 6316.688 7171.178 6312.688 7213.178 6283.688 7232.178 C 6263.688 7245.178 6228.688 7248.178 6090.688 7248.178 C 5934.688 7248.178 5919.688 7246.178 5894.688 7227.178 C 5867.688 7206.178 5828.688 7132.178 5828.688 7102.178 C 5828.688 7093.178 5822.688 7065.178 5814.688 7039.178 C 5755.688 6852.178 5755.688 6838.178 5810.688 6798.178 C 5832.688 6782.178 5858.688 6768.178 5866.688 6768.178 C 5874.688 6768.178 5901.688 6761.178 5927.688 6754.178 C 5952.688 6746.178 5999.688 6732.178 6030.688 6723.178 C 6153.688 6690.178 6195.688 6678.178 6248.688 6665.178 C 6478.688 6604.178 6507.688 6594.178 6560.688 6549.178 C 6602.688 6513.178 6638.688 6445.178 6638.688 6401.178 C 6638.688 6386.178 6631.688 6350.178 6622.688 6319.178 C 6596.688 6228.178 6582.688 6174.178 6533.688 5988.178 C 6470.688 5744.178 6457.688 5705.178 6424.688 5660.178 C 6367.688 5580.178 6269.688 5523.178 6138.688 5494.178 C 6074.688 5480.178 5995.688 5478.178 5604.688 5478.178 C 5170.688 5478.178 5141.688 5479.178 5076.688 5499.178 C 4989.688 5524.178 4934.688 5574.178 4925.688 5635.178 C 4917.688 5680.178 4926.688 5763.178 4940.688 5790.178 C 4945.688 5800.178 4953.688 5827.178 4958.688 5850.178 C 4962.688 5874.178 4976.688 5929.178 4988.688 5973.178 C 5000.688 6017.178 5013.688 6069.178 5017.688 6088.178 C 5021.688 6108.178 5032.688 6127.178 5044.688 6133.178 C 5056.688 6139.178 5162.688 6143.178 5309.688 6143.178 C 5588.688 6143.178 5572.688 6149.178 5545.688 6049.178 C 5493.688 5855.178 5490.688 5826.178 5517.688 5799.178 C 5537.688 5779.178 5549.688 5778.178 5711.688 5778.178 C 5864.688 5778.178 5886.688 5780.178 5912.688 5797.178 C 5944.688 5818.178 5977.688 5879.178 5978.688 5918.178 C 5978.688 5931.178 5984.688 5960.178 5992.688 5983.178 C 6007.688 6027.178 6023.688 6091.178 6042.688 6180.178 C 6052.688 6226.178 6052.688 6243.178 6042.688 6267.178 C 6029.688 6298.178 5974.688 6331.178 5915.688 6343.178 C 5897.688 6347.178 5863.688 6355.178 5838.688 6363.178 C 5813.688 6370.178 5764.688 6383.178 5728.688 6393.178 C 5692.688 6402.178 5641.688 6416.178 5613.688 6423.178 C 5586.688 6431.178 5538.688 6444.178 5508.688 6451.178 C 5305.688 6505.178 5272.688 6520.178 5223.688 6584.178 C 5196.688 6619.178 5193.688 6630.178 5193.688 6698.178 C 5193.688 6743.178 5200.688 6797.178 5212.688 6833.178 C 5222.688 6866.178 5236.688 6916.178 5243.688 6943.178 C 5251.688 6971.178 5264.688 7020.178 5273.688 7053.178 C 5283.688 7086.178 5296.688 7136.178 5303.688 7163.178 C 5344.688 7316.178 5351.688 7331.178 5413.688 7393.178 C 5480.688 7460.178 5557.688 7502.178 5663.688 7529.178 C 5726.688 7545.178 5779.688 7546.178 6203.688 7544.178 C 6570.688 7541.178 6684.688 7538.178 6723.688 7527.178 Z" style="fill: rgb(255, 0, 0);" transform="matrix(0.03143400326371193, 0, 0, -0.03143400326371193, 25.189647674560547, 426.5455627441406)"/>
</svg>