<?xml version="1.0" encoding="utf-8"?>
<svg viewBox="25.1459 23.8759 423.6663 119.1046" xmlns="http://www.w3.org/2000/svg">
  <g transform="matrix(0.03143400326371193, 0, 0, -0.03143400326371193, 25.189647674560547, 426.5455627441406)" fill="#000000" stroke="none" style="filter: none;">
    <path d="M1190 12795 c0 -8 -15 -17 -37 -21 -55 -10 -131 -53 -179 -100 -66 -65 -74 -88 -189 -519 -9 -33 -22 -82 -30 -110 -8 -27 -21 -77 -30 -110 -9 -33 -23 -85 -31 -115 -8 -30 -22 -80 -30 -110 -15 -54 -24 -86 -59 -220 -10 -36 -23 -85 -30 -110 -13 -47 -37 -136 -62 -230 -33 -122 -61 -227 -88 -325 -10 -33 -24 -85 -32 -115 -8 -30 -22 -80 -30 -110 -8 -30 -22 -80 -30 -110 -8 -30 -21 -77 -28 -105 -8 -27 -21 -76 -30 -107 -15 -55 -27 -100 -60 -220 -8 -29 -21 -80 -30 -113 -9 -33 -22 -82 -30 -110 -8 -27 -21 -76 -29 -108 -9 -31 -23 -83 -31 -115 -22 -77 -39 -144 -60 -222 -9 -36 -21 -79 -26 -96 -33 -110 14 -207 121 -251 42 -17 96 -18 925 -18 936 0 913 -1 1014 48 55 27 126 93 149 138 18 33 36 91 67 204 9 30 22 80 30 110 9 30 22 80 30 110 9 30 22 80 30 110 9 30 22 80 30 110 9 30 22 80 30 110 9 30 22 80 30 110 9 30 22 79 30 107 7 29 21 78 29 108 8 30 22 82 31 115 9 33 22 83 30 110 8 28 21 77 30 110 31 114 43 160 59 218 8 31 22 81 30 110 8 28 21 77 29 107 8 30 23 84 32 120 10 36 23 85 30 110 7 25 20 74 30 110 10 36 23 85 30 110 7 25 20 74 30 110 9 36 23 89 31 117 8 29 21 78 29 108 9 30 22 80 30 110 9 30 22 79 30 107 7 29 20 78 29 108 8 30 21 80 30 110 35 128 49 178 62 220 41 129 -9 240 -121 271 -20 6 -35 16 -35 24 0 13 -118 15 -890 15 -772 0 -890 -2 -890 -15z m1045 -1456 c70 -20 106 -42 135 -81 22 -28 25 -43 25 -109 0 -41 -8 -100 -17 -130 -33 -109 -48 -166 -48 -186 0 -12 -8 -30 -17 -41 -17 -19 -33 -21 -263 -27 -290 -8 -288 -8 -269 70 6 28 18 67 25 88 22 60 18 102 -11 121 -20 13 -55 16 -193 16 -156 0 -171 -2 -196 -21 -27 -21 -66 -95 -66 -125 0 -9 -6 -37 -14 -63 -59 -187 -59 -201 -4 -241 22 -16 48 -30 56 -30 8 0 35 -7 61 -14 25 -8 72 -22 103 -31 123 -33 165 -45 218 -58 230 -61 259 -71 312 -116 42 -36 78 -104 78 -148 0 -15 -7 -51 -16 -82 -26 -91 -40 -145 -89 -331 -63 -244 -76 -283 -109 -328 -57 -80 -155 -137 -286 -166 -64 -14 -143 -16 -534 -16 -434 0 -463 1 -528 21 -87 25 -142 75 -151 136 -8 45 1 128 15 155 5 10 13 37 18 60 4 24 18 79 30 123 12 44 25 96 29 115 4 20 15 39 27 45 12 6 118 10 265 10 279 0 263 6 236 -94 -52 -194 -55 -223 -28 -250 20 -20 32 -21 194 -21 153 0 175 2 201 19 32 21 65 82 66 121 0 13 6 42 14 65 15 44 31 108 50 197 10 46 10 63 0 87 -13 31 -68 64 -127 76 -18 4 -52 12 -77 20 -25 7 -74 20 -110 30 -36 9 -87 23 -115 30 -27 8 -75 21 -105 28 -203 54 -236 69 -285 133 -27 35 -30 46 -30 114 0 45 7 99 19 135 10 33 24 83 31 110 8 28 21 77 30 110 10 33 23 83 30 110 41 153 48 168 110 230 67 67 144 109 250 136 63 16 116 17 540 15 367 -3 481 -6 520 -17z" style="fill: rgb(255, 0, 0);"/>
    <path d="M3770 12796 c0 -15 -21 -26 -51 -26 -59 0 -193 -111 -226 -187 -20 -46 -28 -72 -67 -223 -21 -78 -39 -144 -61 -225 -10 -33 -23 -82 -30 -110 -8 -27 -21 -76 -30 -107 -8 -32 -22 -82 -30 -110 -7 -29 -21 -80 -30 -113 -10 -33 -23 -82 -30 -110 -8 -27 -20 -75 -29 -105 -8 -30 -21 -80 -30 -110 -8 -30 -22 -80 -30 -110 -8 -30 -22 -82 -31 -115 -9 -33 -22 -82 -30 -110 -8 -27 -21 -77 -30 -110 -9 -33 -23 -85 -31 -115 -15 -54 -24 -86 -59 -220 -10 -36 -23 -85 -30 -110 -7 -25 -20 -74 -30 -110 -21 -79 -43 -160 -60 -220 -7 -25 -20 -74 -30 -110 -9 -36 -23 -89 -31 -117 -8 -29 -21 -78 -29 -108 -9 -30 -22 -80 -30 -110 -9 -30 -22 -80 -30 -110 -9 -30 -22 -80 -30 -110 -41 -147 -47 -172 -56 -201 -22 -74 5 -162 62 -205 75 -55 51 -54 1004 -54 948 0 899 -2 1002 50 85 43 169 150 188 240 6 30 24 97 50 190 8 28 21 75 29 105 7 30 21 80 29 110 26 96 44 163 62 230 10 36 23 85 30 110 7 25 20 74 30 110 10 36 23 85 30 110 7 25 20 74 30 110 19 75 37 140 60 225 10 33 23 83 30 110 8 28 21 77 30 110 10 33 24 84 31 112 8 29 21 78 29 108 9 30 22 80 30 110 9 30 22 80 30 110 9 30 22 80 30 110 37 135 45 164 60 220 9 33 22 83 30 110 8 28 21 75 29 105 7 30 21 82 31 115 16 58 22 83 60 225 10 36 23 85 30 110 7 25 20 74 30 110 9 36 24 85 31 109 21 67 18 157 -6 196 -23 37 -81 85 -104 85 -25 0 -46 12 -46 26 0 12 -136 14 -890 14 -754 0 -890 -2 -890 -14z m1080 -1458 c133 -44 186 -145 152 -288 -17 -74 -32 -132 -48 -187 -24 -87 -42 -155 -59 -223 -19 -73 -36 -139 -59 -221 -9 -31 -16 -63 -16 -72 0 -27 -61 -119 -110 -165 -52 -49 -81 -67 -158 -93 -51 -17 -89 -19 -473 -19 l-419 0 -14 -22 c-8 -13 -17 -36 -21 -53 -3 -16 -12 -52 -20 -80 -8 -27 -21 -79 -30 -115 -9 -36 -23 -90 -32 -120 -8 -30 -21 -77 -28 -105 -8 -27 -21 -75 -29 -106 -9 -31 -16 -63 -16 -72 0 -8 -9 -36 -20 -61 l-19 -46 -258 2 -258 3 1 30 c1 35 24 134 59 260 14 48 24 86 60 225 9 36 23 88 30 115 14 49 25 93 60 225 16 64 29 110 59 220 8 30 22 84 31 120 9 36 23 88 30 115 14 49 25 93 60 225 22 85 40 152 59 219 9 29 16 60 16 68 0 9 7 36 15 62 8 25 22 72 31 104 11 41 23 61 38 67 11 5 314 9 672 9 640 1 651 1 714 -21z" style="fill: rgb(255, 0, 0);"/>
    <path d="M3917 11038 c-8 -13 -18 -39 -22 -58 -4 -19 -13 -60 -22 -90 -37 -135 -51 -187 -88 -330 -9 -36 -23 -85 -31 -110 -8 -25 -14 -57 -14 -72 l0 -28 214 0 c127 0 227 4 247 11 43 14 96 71 104 113 3 17 12 54 20 81 14 50 28 102 60 225 9 36 23 86 31 111 22 67 22 125 1 147 -16 15 -45 17 -252 20 l-234 3 -14 -23z" style="fill: rgb(255, 0, 0);"/>
    <path d="M6348 12789 c-10 -10 -27 -19 -39 -19 -37 0 -139 -62 -180 -109 -39 -44 -79 -119 -79 -148 0 -9 -7 -36 -14 -62 -8 -25 -22 -71 -30 -101 -8 -30 -22 -82 -31 -115 -19 -68 -37 -134 -59 -215 -7 -30 -21 -82 -31 -115 -9 -33 -22 -82 -30 -110 -7 -27 -20 -75 -28 -105 -26 -96 -44 -163 -62 -230 -10 -36 -23 -85 -30 -110 -13 -47 -37 -136 -62 -230 -8 -30 -22 -80 -30 -110 -8 -30 -21 -77 -28 -105 -8 -27 -21 -77 -30 -110 -22 -76 -44 -156 -60 -220 -8 -27 -21 -77 -30 -110 -10 -33 -23 -82 -30 -110 -8 -27 -21 -76 -30 -107 -8 -32 -22 -84 -31 -115 -9 -32 -21 -74 -27 -93 -6 -19 -14 -51 -18 -70 -4 -19 -15 -60 -23 -90 -8 -30 -23 -82 -31 -115 -9 -33 -23 -85 -32 -115 -117 -431 -114 -416 -101 -470 16 -63 44 -96 108 -128 l55 -27 885 0 c947 0 919 -1 1019 50 24 13 68 46 97 75 54 54 74 95 109 230 9 36 23 89 31 117 8 29 21 78 29 108 9 30 22 80 30 110 9 30 22 80 30 110 9 30 22 80 30 110 9 30 22 80 30 110 9 30 22 80 30 110 9 30 22 79 30 107 17 66 39 146 59 218 8 30 22 82 31 115 9 33 22 83 30 110 8 28 21 75 28 105 17 63 44 164 62 230 7 25 21 74 30 110 10 36 23 85 30 110 7 25 20 74 30 110 10 36 23 85 30 110 7 25 20 74 30 110 9 36 23 89 31 117 8 29 21 78 29 108 9 30 22 80 30 110 9 30 22 80 30 110 9 30 22 79 30 107 7 29 21 80 30 113 10 33 24 85 32 115 8 30 22 77 30 104 9 27 16 79 17 116 0 101 -33 145 -147 189 -15 6 -25 16 -22 21 4 7 -295 10 -882 9 -862 -1 -889 -1 -905 -20z m1235 -1469 c-1 -19 -8 -57 -17 -85 -9 -27 -24 -77 -34 -110 l-19 -60 -409 -6 c-225 -3 -451 -7 -501 -8 -93 -1 -93 -1 -98 -28 -3 -16 -12 -50 -20 -78 -8 -27 -21 -75 -28 -105 -8 -30 -22 -84 -32 -120 -9 -36 -23 -87 -31 -115 -7 -27 -15 -63 -16 -80 l-3 -30 450 -5 450 -5 3 -27 c2 -15 -2 -36 -8 -47 -6 -12 -15 -40 -20 -63 -5 -24 -15 -68 -23 -98 l-14 -55 -453 -3 c-313 -1 -457 -6 -467 -13 -7 -6 -18 -30 -24 -53 -11 -43 -28 -103 -54 -196 -9 -30 -23 -80 -31 -110 -9 -30 -22 -75 -30 -100 -8 -25 -14 -54 -14 -66 0 -11 -5 -25 -12 -32 -8 -8 -9 -15 -2 -22 6 -6 190 -11 489 -12 l480 -3 3 -35 c2 -19 -3 -57 -12 -85 -8 -27 -23 -78 -32 -112 l-17 -63 -764 0 -763 0 0 33 c0 18 6 53 14 78 7 24 21 73 31 109 9 36 23 88 30 115 14 49 25 93 60 225 16 64 29 110 59 220 8 30 22 84 31 120 9 36 23 90 32 120 26 93 42 154 88 330 9 36 23 88 30 115 14 49 25 93 60 225 22 85 40 152 59 219 9 29 16 59 16 67 0 7 7 32 16 54 l16 40 767 -2 766 -3 -2 -35z" style="fill: rgb(255, 0, 0);"/>
    <path d="M8940 12795 c0 -8 -15 -17 -37 -21 -61 -11 -114 -44 -178 -109 -62 -63 -74 -86 -110 -225 -9 -36 -22 -85 -30 -110 -7 -25 -20 -74 -30 -110 -17 -68 -33 -126 -60 -222 -8 -32 -22 -82 -30 -110 -22 -82 -42 -157 -60 -223 -10 -33 -23 -82 -30 -110 -17 -64 -39 -144 -60 -220 -10 -33 -23 -82 -30 -110 -8 -27 -21 -76 -30 -107 -8 -32 -23 -84 -31 -115 -18 -63 -34 -125 -59 -218 -9 -33 -22 -82 -30 -110 -8 -27 -21 -75 -28 -105 -25 -93 -49 -183 -62 -230 -7 -25 -20 -74 -30 -110 -10 -36 -23 -85 -30 -110 -7 -25 -20 -74 -30 -110 -9 -36 -23 -89 -31 -117 -8 -29 -21 -78 -29 -108 -9 -30 -22 -80 -30 -110 -9 -30 -22 -80 -30 -110 -40 -146 -48 -173 -60 -215 -47 -158 -18 -250 95 -304 45 -21 51 -21 910 -24 937 -3 939 -3 1044 51 82 43 186 173 186 234 0 8 7 38 16 66 18 61 38 131 58 207 7 30 21 80 29 110 23 85 43 159 62 230 20 73 42 154 60 220 7 25 20 74 30 110 16 63 26 102 59 220 8 30 21 80 30 110 8 30 21 80 30 110 8 30 21 80 30 110 8 30 22 82 31 115 10 33 24 84 31 112 8 29 21 78 29 108 9 30 22 80 30 110 9 30 22 80 30 110 9 30 22 80 30 110 38 138 45 163 59 215 15 59 39 145 61 225 8 28 21 75 29 105 7 30 21 80 29 110 8 30 23 84 32 120 31 115 47 174 61 220 21 71 27 151 15 197 -13 49 -67 98 -123 114 -22 5 -38 16 -38 24 0 13 -116 15 -890 15 -772 0 -890 -2 -890 -15z m1223 -1483 c-1 -24 -9 -62 -17 -85 -8 -23 -23 -70 -33 -104 l-18 -63 -380 -1 c-209 -1 -384 -3 -390 -4 -5 -2 -61 -3 -122 -4 l-113 -1 -5 -27 c-11 -51 -48 -194 -79 -302 -9 -29 -16 -61 -16 -71 0 -10 -6 -33 -14 -51 -8 -19 -16 -50 -18 -69 l-3 -35 450 -5 c434 -5 450 -6 453 -24 4 -18 -3 -47 -45 -196 -9 -30 -17 -61 -19 -67 -3 -10 -103 -13 -457 -13 -362 0 -457 -3 -465 -13 -10 -12 -17 -35 -52 -162 -6 -22 -18 -65 -26 -95 -9 -30 -23 -80 -31 -110 -8 -30 -21 -75 -29 -100 -7 -25 -16 -62 -20 -82 l-6 -38 481 0 c456 0 481 -1 490 -18 12 -23 5 -57 -47 -229 l-16 -53 -763 0 -763 0 0 31 c0 17 7 52 14 78 20 63 36 122 91 331 16 64 29 110 59 220 8 30 22 84 31 120 9 36 23 90 32 120 26 93 42 154 88 330 9 36 23 88 30 115 14 49 25 93 60 225 9 36 23 88 30 115 8 28 20 75 29 105 8 30 22 80 30 111 9 31 16 62 16 70 0 7 7 33 16 56 l17 43 766 -2 766 -3 -2 -43z" style="fill: rgb(255, 0, 0);"/>
    <path d="M11523 12798 c1 -6 -11 -16 -28 -21 -150 -46 -253 -147 -280 -272 -3 -17 -12 -52 -20 -80 -27 -98 -44 -161 -60 -220 -42 -158 -63 -235 -90 -330 -8 -27 -21 -75 -29 -105 -7 -30 -21 -80 -29 -110 -26 -96 -44 -163 -62 -230 -10 -36 -23 -85 -30 -110 -13 -47 -37 -136 -62 -230 -8 -30 -22 -80 -30 -110 -8 -30 -21 -77 -28 -105 -8 -27 -20 -75 -29 -105 -8 -30 -21 -80 -30 -110 -8 -30 -22 -82 -31 -115 -10 -33 -24 -85 -32 -115 -8 -30 -22 -80 -30 -110 -8 -30 -22 -79 -29 -107 -8 -29 -21 -78 -29 -108 -9 -30 -22 -80 -30 -110 -37 -135 -45 -164 -60 -220 -9 -33 -22 -82 -30 -110 -8 -27 -21 -77 -30 -110 -37 -139 -46 -173 -60 -221 -34 -116 -14 -212 52 -260 69 -50 56 -49 998 -49 969 0 912 -3 1022 61 77 45 163 156 163 210 0 9 7 37 14 63 14 43 21 69 61 216 9 30 22 80 30 110 9 30 22 80 30 110 9 30 22 80 30 110 9 30 22 80 30 110 9 30 22 80 30 110 9 30 22 79 30 107 7 29 21 78 29 108 8 30 22 80 30 110 15 59 34 127 61 225 9 33 22 83 30 110 7 28 20 75 28 105 8 30 23 84 32 120 10 36 23 85 30 110 7 25 20 74 30 110 10 36 23 85 30 110 7 25 20 74 30 110 9 36 23 89 31 117 8 29 21 78 29 108 9 30 22 80 30 110 9 30 22 80 30 110 9 30 22 80 30 110 9 30 23 81 31 112 19 70 41 149 61 223 8 30 21 75 28 100 34 117 38 156 24 205 -18 59 -67 111 -120 125 -22 6 -43 18 -46 26 -4 12 -127 14 -894 14 -677 0 -888 -3 -886 -12z m1007 -1456 c100 -24 153 -59 185 -122 29 -58 30 -74 9 -149 -29 -101 -48 -173 -87 -321 -32 -124 -49 -188 -62 -235 -14 -49 -25 -93 -60 -225 -9 -36 -23 -89 -31 -117 -18 -67 -39 -143 -57 -213 -32 -124 -49 -188 -62 -235 -8 -27 -21 -77 -30 -110 -24 -86 -43 -118 -105 -180 -65 -63 -130 -98 -236 -125 -73 -19 -113 -20 -722 -20 l-645 0 7 53 c4 28 13 72 21 97 8 25 21 70 29 100 8 30 22 79 30 109 9 29 16 60 16 68 0 9 7 36 14 62 8 25 22 71 30 101 8 30 22 79 30 109 9 29 16 60 16 68 0 9 7 36 14 62 20 63 36 122 91 331 9 36 23 88 30 115 14 49 25 93 60 225 9 36 23 88 30 115 15 53 32 117 60 225 9 36 23 85 31 110 8 25 14 54 14 64 0 11 7 28 17 38 15 17 49 18 652 18 579 0 643 -2 711 -18z" style="fill: rgb(255, 0, 0);"/>
    <path d="M11637 11053 c-5 -11 -32 -105 -51 -176 -28 -105 -64 -236 -91 -332 -8 -27 -21 -75 -29 -105 -7 -30 -21 -80 -29 -110 -26 -96 -44 -163 -62 -230 -10 -36 -23 -85 -30 -110 -7 -25 -20 -74 -30 -110 -24 -88 -39 -144 -59 -213 -9 -31 -14 -62 -11 -67 10 -17 460 -13 493 4 42 22 67 56 85 116 39 135 47 163 47 177 0 9 7 36 15 62 8 25 21 71 29 101 38 147 49 189 61 235 8 28 21 79 30 115 19 76 38 144 59 219 9 29 16 60 16 68 0 9 7 36 15 62 32 104 45 156 51 206 6 45 3 56 -15 74 -20 20 -30 21 -255 21 -129 0 -237 -3 -239 -7z" style="fill: rgb(255, 0, 0);"/>
  </g>
</svg>